<svg width="41" height="29" viewBox="0 0 41 29" fill="none" xmlns="http://www.w3.org/2000/svg">
<path d="M14.5886 22V19.672H7.70059L3.81259 19.936C3.81259 18.112 4.55659 17.344 6.71659 16.6L10.1006 15.568C12.9326 14.704 14.6366 13.312 14.6366 10.672C14.6366 7.84 12.7166 5.68 8.15659 5.68C3.14059 5.68 1.10059 8.368 1.10059 11.344V11.584H3.64459V11.296C3.64459 9.184 4.84459 8.056 8.06059 8.056C10.9406 8.056 12.0446 8.92 12.0446 10.624C12.0446 12.04 11.3726 12.688 9.45259 13.384L5.61259 14.704C2.30059 15.832 1.12459 17.32 1.12459 20.296V22H14.5886ZM17.6355 22.48L26.2755 5.44H23.5155L14.8755 22.48H17.6355Z" fill="white"/>
<path d="M35.5426 17.1591C34.7926 17.1591 34.1241 17.0303 33.5369 16.7727C32.9536 16.5152 32.4896 16.1572 32.1449 15.6989C31.804 15.2367 31.6184 14.7008 31.5881 14.0909H33.0199C33.0502 14.4659 33.179 14.7898 33.4062 15.0625C33.6335 15.3314 33.9309 15.5398 34.2983 15.6875C34.6657 15.8352 35.0729 15.9091 35.5199 15.9091C36.0199 15.9091 36.4631 15.822 36.8494 15.6477C37.2358 15.4735 37.5388 15.2311 37.7585 14.9205C37.9782 14.6098 38.0881 14.25 38.0881 13.8409C38.0881 13.4129 37.982 13.036 37.7699 12.7102C37.5578 12.3807 37.2472 12.1231 36.8381 11.9375C36.429 11.7519 35.929 11.6591 35.3381 11.6591H34.4062V10.4091H35.3381C35.8002 10.4091 36.2055 10.3258 36.554 10.1591C36.9063 9.99242 37.1809 9.75758 37.3778 9.45455C37.5786 9.15152 37.679 8.79545 37.679 8.38636C37.679 7.99242 37.5919 7.64962 37.4176 7.35795C37.2434 7.06629 36.9972 6.83901 36.679 6.67614C36.3646 6.51326 35.9934 6.43182 35.5653 6.43182C35.1638 6.43182 34.785 6.50568 34.429 6.65341C34.0767 6.79735 33.7888 7.00758 33.5653 7.28409C33.3419 7.55682 33.2206 7.88636 33.2017 8.27273H31.8381C31.8608 7.66288 32.0445 7.12879 32.3892 6.67045C32.7339 6.20833 33.1847 5.84848 33.7415 5.59091C34.3021 5.33333 34.9176 5.20455 35.5881 5.20455C36.3078 5.20455 36.9252 5.35038 37.4403 5.64205C37.9555 5.92992 38.3513 6.31061 38.6278 6.78409C38.9044 7.25758 39.0426 7.76894 39.0426 8.31818C39.0426 8.97348 38.8703 9.5322 38.5256 9.99432C38.1847 10.4564 37.7206 10.7765 37.1335 10.9545V11.0455C37.8684 11.1667 38.4422 11.4792 38.8551 11.983C39.268 12.483 39.4744 13.1023 39.4744 13.8409C39.4744 14.4735 39.3021 15.0417 38.9574 15.5455C38.6165 16.0455 38.1506 16.4394 37.5597 16.7273C36.9688 17.0152 36.2964 17.1591 35.5426 17.1591Z" fill="white"/>
</svg>
