<svg width="36" height="29" viewBox="0 0 36 29" fill="none" xmlns="http://www.w3.org/2000/svg">
<path d="M5.93913 22V5.92H4.54713C3.92313 7.432 3.05913 7.912 1.28313 7.912H0.443125V9.208H4.23513V22H5.93913ZM8.69556 22.48L17.3356 5.44H15.5116L6.87156 22.48H8.69556Z" fill="white"/>
<path d="M30.5899 15.16C33.3579 15.16 35.0699 14.024 35.0699 12.024C35.0699 10.6 34.2059 9.672 32.6859 9.384V9.272C34.0299 9.032 34.7339 8.136 34.7339 6.936C34.7339 5.16 33.2139 4.12 30.5899 4.12C27.4059 4.12 25.9819 5.704 25.9819 7.688V7.88H27.1659V7.736C27.1659 6.056 28.0619 5.208 30.5099 5.208C32.8139 5.208 33.5979 5.832 33.5979 7.112C33.5979 8.328 32.7179 8.92 31.1019 8.92H28.4459V9.896H31.3419C32.9739 9.896 33.9179 10.536 33.9179 11.896C33.9179 13.416 32.9579 14.072 30.5579 14.072C27.9819 14.072 27.1659 13.224 27.1659 11.544V11.336H25.9819V11.592C25.9819 13.608 27.3579 15.16 30.5899 15.16Z" fill="white"/>
</svg>
