<svg width="41" height="29" viewBox="0 0 41 29" fill="none" xmlns="http://www.w3.org/2000/svg">
<path d="M7.98363 22.24C12.3756 22.24 15.0396 20.56 15.0396 17.512C15.0396 15.28 13.6476 13.984 11.3196 13.576V13.384C13.3836 13.048 14.4636 11.752 14.4636 9.928C14.4636 7.192 12.1356 5.68 8.03163 5.68C3.03963 5.68 0.735625 8.032 0.735625 11.176V11.392H3.47163V11.224C3.47163 9.112 4.52763 8.128 7.81563 8.128C10.9356 8.128 11.8956 8.872 11.8956 10.432C11.8956 11.872 10.8876 12.592 8.94363 12.592H4.81563V14.752H9.30363C11.3196 14.752 12.4236 15.496 12.4236 17.128C12.4236 19.024 11.2236 19.792 7.88763 19.792C4.33563 19.792 3.47163 18.808 3.47163 16.696V16.36H0.735625V16.744C0.735625 20.008 2.94363 22.24 7.98363 22.24ZM17.9284 22.48L26.5684 5.44H23.8084L15.1684 22.48H17.9284Z" fill="white"/>
<path d="M35.5426 17.1591C34.7926 17.1591 34.1241 17.0303 33.5369 16.7727C32.9536 16.5152 32.4896 16.1572 32.1449 15.6989C31.804 15.2367 31.6184 14.7008 31.5881 14.0909H33.0199C33.0502 14.4659 33.179 14.7898 33.4062 15.0625C33.6335 15.3314 33.9309 15.5398 34.2983 15.6875C34.6657 15.8352 35.0729 15.9091 35.5199 15.9091C36.0199 15.9091 36.4631 15.822 36.8494 15.6477C37.2358 15.4735 37.5388 15.2311 37.7585 14.9205C37.9782 14.6098 38.0881 14.25 38.0881 13.8409C38.0881 13.4129 37.982 13.036 37.7699 12.7102C37.5578 12.3807 37.2472 12.1231 36.8381 11.9375C36.429 11.7519 35.929 11.6591 35.3381 11.6591H34.4062V10.4091H35.3381C35.8002 10.4091 36.2055 10.3258 36.554 10.1591C36.9063 9.99242 37.1809 9.75758 37.3778 9.45455C37.5786 9.15152 37.679 8.79545 37.679 8.38636C37.679 7.99242 37.5919 7.64962 37.4176 7.35795C37.2434 7.06629 36.9972 6.83901 36.679 6.67614C36.3646 6.51326 35.9934 6.43182 35.5653 6.43182C35.1638 6.43182 34.785 6.50568 34.429 6.65341C34.0767 6.79735 33.7888 7.00758 33.5653 7.28409C33.3419 7.55682 33.2206 7.88636 33.2017 8.27273H31.8381C31.8608 7.66288 32.0445 7.12879 32.3892 6.67045C32.7339 6.20833 33.1847 5.84848 33.7415 5.59091C34.3021 5.33333 34.9176 5.20455 35.5881 5.20455C36.3078 5.20455 36.9252 5.35038 37.4403 5.64205C37.9555 5.92992 38.3513 6.31061 38.6278 6.78409C38.9044 7.25758 39.0426 7.76894 39.0426 8.31818C39.0426 8.97348 38.8703 9.5322 38.5256 9.99432C38.1847 10.4564 37.7206 10.7765 37.1335 10.9545V11.0455C37.8684 11.1667 38.4422 11.4792 38.8551 11.983C39.268 12.483 39.4744 13.1023 39.4744 13.8409C39.4744 14.4735 39.3021 15.0417 38.9574 15.5455C38.6165 16.0455 38.1506 16.4394 37.5597 16.7273C36.9688 17.0152 36.2964 17.1591 35.5426 17.1591Z" fill="white"/>
</svg>
